<?xml version="1.0" encoding="UTF-8"?>
<svg width="146px" height="25px" viewBox="0 0 146 25" version="1.1" xmlns="http://www.w3.org/2000/svg" xmlns:xlink="http://www.w3.org/1999/xlink">
    <!-- Generator: Sketch 55.2 (78181) - https://sketchapp.com -->
    <title>logo</title>
    <desc>Created with Sketch.</desc>
    <g id="Page-1" stroke="none" stroke-width="1" fill="none" fill-rule="evenodd">
        <g id="Landing_v2" transform="translate(-660.000000, -61.000000)" fill="#FFFFFF">
            <g id="HEADER" transform="translate(0.000000, 61.000000)">
                <path d="M773.074963,16.3526686 C773.074963,18.858262 771.047929,20.8889448 768.547715,20.8889448 C766.046624,20.8889448 764.01959,18.858262 764.01959,16.3526686 C764.01959,13.8470753 766.046624,11.8163925 768.547715,11.8163925 C771.047929,11.8163925 773.074963,13.8470753 773.074963,16.3526686 Z M801.384964,8.04762474 L806,8.04762474 L798.376456,24.6571849 L795.300351,24.6571849 L789.406238,11.8152492 L782.963448,11.8152492 L782.963448,17.807918 C782.963448,19.0409267 783.09952,19.6908508 783.544607,20.1710382 C784.091528,20.7866631 784.911472,21.0610559 785.766531,21.0610559 C786.552237,21.0610559 787.474893,20.8209622 788.09029,20.5474489 L789.66258,24.1092787 C788.602974,24.5542876 787.474893,24.9992964 785.492631,24.9992964 C783.339182,24.9992964 781.595704,24.2464751 780.331552,23.0477655 C779.032283,21.8138772 778.518721,19.9995427 778.518721,17.2943109 L778.518721,11.8152492 L774.24606,11.8152492 L774.24606,8.04762474 L778.518721,8.04762474 L778.518721,3.42428165 L782.963448,3.42428165 L782.963448,8.04762474 L787.677684,8.04762474 L789.970717,8.04762474 L792.29272,8.04762474 L796.838403,18.1843287 L801.384964,8.04762474 Z M707.541454,24.656921 L707.541454,8.0473609 L711.814115,8.0473609 L711.814115,9.38326696 C713.079145,8.35605282 714.651436,7.70612881 716.497626,7.70612881 C718.788025,7.70612881 720.872999,8.73334295 722.240742,10.3770615 C723.334586,11.677789 723.949104,13.3558066 723.949104,16.1982347 L723.949104,24.656921 L719.505256,24.656921 L719.505256,15.8561232 C719.505256,14.2124047 719.129522,13.3558066 718.514125,12.7393022 C717.932966,12.1570969 717.044547,11.8141059 716.019179,11.8141059 C714.138751,11.8141059 712.600699,13.013695 711.985302,13.8694136 L711.985302,24.656921 L707.541454,24.656921 Z M755.273759,14.2124926 C755.136809,12.7393901 753.803303,11.3014662 751.992229,11.3014662 C750.146039,11.3014662 748.641346,12.705091 748.436799,14.2124926 L755.273759,14.2124926 Z M759.410348,22.0203754 C757.802943,23.9384868 755.171047,25 752.607626,25 C747.650215,25 743.924476,21.5744871 743.924476,16.3698182 C743.924476,11.7464751 747.069056,7.70621676 751.992229,7.70621676 C756.572149,7.70621676 759.82032,11.5749796 759.82032,16.1983227 C759.82032,16.644211 759.786083,17.0892199 759.717608,17.4656305 L748.232252,17.4656305 C748.471036,19.7944516 750.351464,21.403871 752.70946,21.403871 C754.589887,21.403871 756.094581,20.3423578 756.880287,19.4857597 L759.410348,22.0203754 Z M699.482742,13.8697654 C698.560086,12.6367567 697.089631,11.8153372 695.381269,11.8153372 C692.782732,11.8153372 691.10773,13.9726627 691.10773,16.370082 C691.10773,18.9724165 692.988157,20.8896484 695.483103,20.8896484 C697.158106,20.8896484 698.628561,20.0682288 699.482742,18.8352201 L699.482742,13.8697654 Z M703.926591,24.6572728 L699.65393,24.6572728 L699.65393,23.3213668 C698.286187,24.4857773 696.713896,24.9993844 695.038894,24.9993844 C692.577307,24.9993844 690.253549,23.903572 688.783093,22.1912553 C687.484703,20.6847332 686.663881,18.6294255 686.663881,16.370082 C686.663881,11.4723461 690.286908,7.70560113 694.800109,7.70560113 C696.679659,7.70560113 698.354662,8.32122604 699.65393,9.38361875 L699.65393,8.04771269 L703.926591,8.04771269 L703.926591,24.6572728 Z M742.907096,21.2670264 C740.958193,23.8693609 738.497485,24.9994723 735.387142,24.9994723 C730.258544,24.9994723 726.498567,21.1641291 726.498567,16.37017 C726.498567,11.5401528 730.361256,7.70568908 735.421379,7.70568908 C738.29206,7.70568908 740.855481,9.04159514 742.394412,11.0265457 L739.248953,13.8012552 C738.360535,12.6368446 737.027907,11.8145456 735.421379,11.8145456 C732.85708,11.8145456 730.942416,13.8355543 730.942416,16.37017 C730.942416,18.9725044 732.822843,20.8897363 735.523214,20.8897363 C737.334289,20.8897363 738.770507,19.793924 739.488616,18.6981116 L742.907096,21.2670264 Z M685.980536,11.986305 C685.672399,11.8834077 685.023643,11.8148095 684.374009,11.8148095 C682.425984,11.8148095 680.887054,13.2184343 680.340132,14.2113493 L680.340132,24.6567451 L675.896283,24.6567451 L675.896283,8.04718501 L680.168945,8.04718501 L680.168945,9.72608209 C681.160953,8.49307334 682.972906,7.70595292 684.989405,7.70595292 C685.639039,7.70595292 686.014774,7.77367166 686.49322,7.84226986 L685.980536,11.986305 Z M673.161236,4.10973602 C672.784624,4.00771818 672.237702,3.93911997 671.82773,3.93911997 C670.733887,3.93911997 669.879706,4.24693243 669.332784,4.89773591 C668.956172,5.37616441 668.717388,5.99354825 668.717388,7.53524892 L668.717388,8.04797653 L673.845108,8.04797653 L673.845108,11.8147215 L668.717388,11.8147215 L668.717388,24.6566572 L664.272661,24.6566572 L664.272661,11.8147215 L660,11.8147215 L660,8.04797653 L664.272661,8.04797653 L664.272661,7.36287395 C664.272661,4.69194129 664.888936,3.08252188 666.050376,1.95241044 C667.213572,0.82229899 668.956172,2.84217094e-14 671.212334,2.84217094e-14 C672.10163,2.84217094e-14 672.921574,0.0685982045 673.845108,0.30869192 L673.161236,4.10973602 Z" id="logo"></path>
            </g>
        </g>
    </g>
</svg>